<svg width="50" height="50" xmlns="http://www.w3.org/2000/svg">
  <path d="M20.844444 18.988889l10.622223 6.033333-10.622223 6.033334V18.988889zM50 5.355556v39.288888C50 47.6 47.6 50 44.644444 50H5.355556C2.4 50 0 47.6 0 44.644444V5.355556C0 2.4 2.4 0 5.355556 0h39.288888C47.6 0 50 2.4 50 5.355556zm-4.688889 19.677777s0-6.655555-.844444-9.844444c-.466667-1.766667-1.844445-3.144445-3.58889-3.611111-3.155555-.855556-15.866666-.855556-15.866666-.855556s-12.711111 0-15.866667.855556c-1.755555.466666-3.122222 1.855555-3.588888 3.61111-.844445 3.177779-.844445 9.844445-.844445 9.844445s0 6.655556.844445 9.844445C6.022222 36.644444 7.4 37.966667 9.144444 38.433333c3.155556.844445 15.866667.844445 15.866667.844445s12.711111 0 15.866667-.855556c1.755555-.466666 3.122222-1.8 3.588889-3.555555.844444-3.177778.844444-9.833334.844444-9.833334z" fill="#FFF" fill-rule="nonzero"/>
</svg>
