<svg version="1" xmlns="http://www.w3.org/2000/svg" width="346.667" height="346.667" viewBox="0 0 260.000000 260.000000"><path d="M0 130v130h260V0H0v130zm109.1-35.2c3.5 1.8 7.9 4.6 9.7 6.2 3.1 2.9 3.2 3.1 3.2 11.5v8.5h-6.5c-7.2 0-7 .2-8-7.2-.6-4.3-.9-4.8-5.1-6.8-3.7-1.8-5.8-2.1-11.9-1.8-6.4.3-7.8.7-11.2 3.4-5 4.1-8.2 10.5-9.4 18.9-1.2 8.4.2 19.8 3 25.4 5.6 10.9 18.6 15 30 9.3 2.9-1.4 3.7-2.5 4.4-5.7.4-2.2 1-5 1.3-6.3.4-2 1-2.2 6.9-2.2h6.5v17.9l-3.6 2.9c-9 7.4-21.3 10.7-33.4 9.1-8.6-1.2-15.7-4.8-21.3-10.8-8.4-8.9-11.7-18-11.7-32.1 0-14.6 2.9-23.1 11-32.3 7.5-8.5 16.3-11.8 30.1-11.4 8.6.2 10.3.6 16 3.5zm55.9 2.7v5.5l-4 .6-4 .7v22.8l3.2-.3c2.9-.3 4.1-1.6 11-11.3 4.2-6.1 7.7-11.3 7.8-11.8 0-.4-.9-.7-2-.7-1.8 0-2-.7-2-5.5V92h34v10.9l-4.7.7-4.8.6-10.3 13.9-10.3 13.8 11.4 16.3c10.9 15.7 11.5 16.3 15.8 17.4l4.4 1.1.3 5.1.3 5.2h-35.2l.3-5.3c.3-4.5.6-5.2 2.6-5.5 1.2-.2 2.2-.5 2.2-.8 0-.2-3.4-5.6-7.7-11.9l-7.6-11.5H157v23l4 .6 4 .7V177h-35v-10.8l4.5-.6 4.5-.7V104h-2.2c-5.9 0-6.8-.9-6.8-6.6V92h35v5.5z"/></svg>